<svg width="270" height="105" viewBox="0 0 270 105" fill="none" xmlns="http://www.w3.org/2000/svg">
<path d="M23.9766 79.7168L24.0117 78.5039V75.7266C22.3594 78.4805 19.9219 80.2324 16.6992 80.9824C15.6797 81.2168 14.4902 81.334 13.1309 81.334C11.7832 81.334 10.3828 81.0527 8.92969 80.4902C7.48828 79.9277 6.22266 79.1133 5.13281 78.0469C2.74219 75.7266 1.54688 72.6738 1.54688 68.8887C1.54688 65.2676 2.8125 62.2031 5.34375 59.6953C7.98047 57.1055 11.291 55.8105 15.2754 55.8105C17.291 55.8105 19.1133 56.1855 20.7422 56.9355C21.7383 57.3809 22.4414 57.7969 22.8516 58.1836C23.2617 58.5586 23.4668 58.8633 23.4668 59.0977C23.4668 59.3203 23.3965 59.5137 23.2559 59.6777C23.1152 59.8418 22.916 59.9238 22.6582 59.9238C22.4121 59.9238 22.1367 59.7891 21.832 59.5195C20.9297 58.7227 20.1328 58.2012 19.4414 57.9551C18.7617 57.709 18.2168 57.5332 17.8066 57.4277C17.3965 57.3223 17.0273 57.2461 16.6992 57.1992C16.1953 57.1289 15.5977 57.0938 14.9062 57.0938C14.2148 57.0938 13.5762 57.1523 12.9902 57.2695V80.0156C13.1191 80.0273 13.248 80.0332 13.377 80.0332H13.7285C17.209 80.0332 20.0273 78.7148 22.1836 76.0781C22.9219 75.1758 23.5312 74.1094 24.0117 72.8789V71.1914C24.0117 71.1914 23.9824 70.6641 23.9238 69.6094C23.9238 68.9883 24.1699 68.6777 24.6621 68.6777C24.9199 68.6777 25.1191 68.7656 25.2598 68.9414C25.4004 69.1055 25.4707 69.3105 25.4707 69.5566L25.3652 71.0156V77.5547L25.4707 80.2793C25.4707 80.5605 25.3887 80.7832 25.2246 80.9473C25.0723 81.1113 24.8906 81.1934 24.6797 81.1934C24.1641 81.1934 23.9062 80.9238 23.9062 80.3848C23.9062 80.2441 23.9297 80.0215 23.9766 79.7168ZM33.3176 62.2266H40.8762V67.7461C41.6848 65.7422 42.552 64.2715 43.4777 63.334C44.4152 62.3848 45.3527 61.9102 46.2902 61.9102C46.8176 61.9102 47.2336 62.0508 47.5383 62.332C47.8547 62.6016 48.0129 62.9062 48.0129 63.2461C48.0129 63.5859 47.966 63.8555 47.8723 64.0547C47.7785 64.2539 47.6555 64.4238 47.5031 64.5645C47.1867 64.8574 46.8879 65.0039 46.6066 65.0039C46.1613 65.0039 45.8332 64.957 45.6223 64.8633C45.259 64.6992 44.9367 64.6172 44.6555 64.6172C44.3742 64.6172 44.0168 64.8457 43.5832 65.3027C43.1496 65.748 42.7336 66.3691 42.3352 67.166C41.3625 69.1113 40.8762 71.2207 40.8762 73.4941V81H33.3176V62.2266ZM68.4105 76.7285C68.8676 76.7285 69.0961 76.9395 69.0961 77.3613C69.0961 77.6777 68.891 78.0527 68.4809 78.4863C66.6293 80.3848 64.0922 81.334 60.8695 81.334C57.975 81.334 55.5375 80.4609 53.557 78.7148C51.5062 76.8984 50.4809 74.6016 50.4809 71.8242C50.4809 68.9883 51.4066 66.6562 53.2582 64.8281C55.2152 62.8828 57.8168 61.9102 61.0629 61.9102C63.6645 61.9102 65.85 62.7012 67.6195 64.2832C69.5297 65.9824 70.4848 68.2148 70.4848 70.9805C70.4848 71.3789 70.473 71.8008 70.4496 72.2461H58.848V79.7871C59.6449 79.9512 60.5414 80.0332 61.5375 80.0332C63.6469 80.0332 65.4457 79.3359 66.934 77.9414C67.2387 77.6367 67.4555 77.3965 67.5844 77.2207C67.8539 76.8926 68.1293 76.7285 68.4105 76.7285ZM63.7172 63.5273C62.9555 63.3047 62.0941 63.1934 61.1332 63.1934C60.1723 63.1934 59.4105 63.2578 58.848 63.3867V70.9629H63.7172V63.5273ZM93.0621 76.7285C93.5191 76.7285 93.7477 76.9395 93.7477 77.3613C93.7477 77.6777 93.5426 78.0527 93.1324 78.4863C91.2809 80.3848 88.7438 81.334 85.5211 81.334C82.6266 81.334 80.1891 80.4609 78.2086 78.7148C76.1578 76.8984 75.1324 74.6016 75.1324 71.8242C75.1324 68.9883 76.0582 66.6562 77.9098 64.8281C79.8668 62.8828 82.4684 61.9102 85.7145 61.9102C88.316 61.9102 90.5016 62.7012 92.2711 64.2832C94.1813 65.9824 95.1363 68.2148 95.1363 70.9805C95.1363 71.3789 95.1246 71.8008 95.1012 72.2461H83.4996V79.7871C84.2965 79.9512 85.193 80.0332 86.1891 80.0332C88.2984 80.0332 90.0973 79.3359 91.5855 77.9414C91.8902 77.6367 92.107 77.3965 92.2359 77.2207C92.5055 76.8926 92.7809 76.7285 93.0621 76.7285ZM88.3688 63.5273C87.607 63.3047 86.7457 63.1934 85.7848 63.1934C84.8238 63.1934 84.0621 63.2578 83.4996 63.3867V70.9629H88.3688V63.5273ZM114.409 64.1426C114.116 63.9551 113.8 63.8613 113.46 63.8613C113.12 63.8613 112.768 63.9434 112.405 64.1074C112.042 64.2598 111.661 64.4766 111.262 64.7578C110.43 65.3555 109.663 66.1523 108.96 67.1484V81H101.401V62.2266H108.96V65.2324C110.964 63.0176 113.231 61.9102 115.762 61.9102C119.899 61.9102 121.968 63.9141 121.968 67.9219V81H114.409V64.1426ZM139.419 56.127C142.583 56.127 145.097 56.127 146.96 56.127C148.835 56.127 149.972 56.1328 150.37 56.1445C152.105 56.2266 153.329 56.4316 154.044 56.7598C154.759 57.0762 155.327 57.4336 155.749 57.832C156.652 58.7227 157.103 59.8008 157.103 61.0664C157.103 62.3203 156.663 63.4219 155.784 64.3711C155.515 64.6641 155.204 64.916 154.853 65.127C156.763 65.4785 158.327 66.2812 159.546 67.5352C160.87 68.8945 161.532 70.5527 161.532 72.5098C161.532 74.502 160.917 76.2188 159.687 77.6602C157.964 79.6523 155.304 80.7422 151.706 80.9297C150.792 80.9766 149.89 81 148.999 81H139.419V56.127ZM150.95 64.7754L151.847 64.8809H152.128C153.054 64.8809 153.857 64.541 154.536 63.8613C155.263 63.1348 155.626 62.2441 155.626 61.1895C155.626 59.9004 155.07 58.9102 153.956 58.2188C153.394 57.8672 152.831 57.6621 152.269 57.6035C151.718 57.5332 151.284 57.4863 150.968 57.4629C150.312 57.416 149.45 57.3926 148.384 57.3926V79.6992H150.335C152.327 79.6992 153.95 79.4531 155.204 78.9609C156.704 78.4453 157.894 77.6133 158.773 76.4648C159.605 75.375 160.021 74.2324 160.021 73.0371C160.021 71.8418 159.845 70.834 159.493 70.0137C159.142 69.1934 158.632 68.4961 157.964 67.9219C156.605 66.7383 154.712 66.1465 152.286 66.1465L151.073 66.252C150.698 66.252 150.423 66.1758 150.247 66.0234C150.071 65.8711 149.984 65.6953 149.984 65.4961C149.984 65.0156 150.306 64.7754 150.95 64.7754ZM165.969 71.5078C165.969 70.1016 166.221 68.8242 166.725 67.6758C167.241 66.5156 167.944 65.5078 168.834 64.6523C170.756 62.8242 173.17 61.9102 176.077 61.9102C179.041 61.9102 181.455 62.8594 183.319 64.7578C185.1 66.5508 185.991 68.8184 185.991 71.5605C185.991 74.3145 185.077 76.6172 183.248 78.4688C181.362 80.3789 178.948 81.334 176.006 81.334C173.135 81.334 170.756 80.4258 168.87 78.6094C166.936 76.7344 165.969 74.3672 165.969 71.5078ZM175.514 80.0156C175.608 80.0273 175.702 80.0332 175.795 80.0332H176.041C178.409 80.0332 180.395 79.3008 182 77.8359C183.711 76.2539 184.567 74.1797 184.567 71.6133C184.567 69.1055 183.764 67.0723 182.159 65.5137C180.577 63.9668 178.532 63.1934 176.024 63.1934H175.76C175.678 63.1934 175.596 63.1992 175.514 63.2109V80.0156ZM190.375 81.334C190.211 81.334 190.058 81.2637 189.918 81.123C189.777 80.9941 189.707 80.8359 189.707 80.6484C189.707 80.2734 189.918 79.9277 190.339 79.6113C190.761 79.2949 191.066 79.0078 191.254 78.75C191.254 78.75 192.806 76.8457 195.912 73.0371L189.443 62.2266H197.441L201.168 68.4316C203.336 65.6426 204.502 64.1191 204.666 63.8613C204.982 63.3691 205.193 62.9883 205.298 62.7188C205.521 62.1797 205.832 61.9102 206.23 61.9102C206.418 61.9102 206.582 61.9746 206.722 62.1035C206.875 62.2207 206.951 62.3672 206.951 62.543C206.951 62.7188 206.916 62.8945 206.845 63.0703C206.787 63.2461 206.681 63.4688 206.529 63.7383C206.224 64.2539 205.691 64.998 204.929 65.9707L201.959 69.75L208.726 81H200.693L196.685 74.3203L192.396 79.7168C191.658 80.6426 191.13 81.1641 190.814 81.2812C190.697 81.3164 190.55 81.334 190.375 81.334Z" fill="#4A790F"/>
<path d="M131.468 40.7069C132.653 36.3074 132.983 31.4769 132.426 26.6811L132.327 25.8283L131.752 25.4727C128.469 23.4367 124.918 22.6088 121.457 23.0723C117.996 23.5358 114.746 25.2743 112.035 28.1129C111.858 28.2978 111.681 28.49 111.509 28.6842C109.173 31.3182 107.905 34.7848 107.842 38.7094C107.794 41.7128 108.464 44.7996 109.743 47.5424L106.909 50.5075L108.255 52.9208L121.385 39.1862L120.038 36.7726L111.395 45.8143C109.441 41.4009 109.135 35.2939 112.91 31.0376C113.065 30.8636 113.223 30.6914 113.381 30.5259C115.727 28.0834 118.52 26.5544 121.5 26.0815C124.479 25.6086 127.549 26.2073 130.421 27.8218C130.803 32.0407 130.418 36.2527 129.302 40.0648C128.185 43.8769 126.374 47.1647 124.036 49.6216C123.878 49.787 123.715 49.9511 123.552 50.1092C120.359 53.2039 117.017 52.5367 114.479 50.2308L112.742 52.0478C113.963 53.3456 115.351 54.2803 116.814 54.7885C119.596 55.7371 122.372 54.9732 124.842 52.5795C125.024 52.4029 125.206 52.2197 125.383 52.0348C128.138 49.1555 130.24 45.2442 131.468 40.7069Z" fill="#CFDD33"/>
<path d="M101.278 29.0423C97.3286 27.1546 92.8551 26.0054 88.289 25.7055L87.477 25.6525L87.0632 26.1373C84.6954 28.9054 83.4203 32.1369 83.3663 35.5068C83.3122 38.8767 84.481 42.2661 86.7551 45.3339C86.9031 45.5338 87.0581 45.7352 87.2156 45.9326C89.351 48.6085 92.4161 50.4134 96.0796 51.152C98.8831 51.7172 101.866 51.6144 104.613 50.8729L106.988 54.0798L109.436 53.2174L98.4343 38.363L95.986 39.2255L103.228 49.0043C98.8234 50.0979 93.0658 49.332 89.6152 45.0076C89.474 44.8309 89.3353 44.6506 89.2027 44.4716C87.2478 41.8196 86.2106 38.9005 86.1881 35.9866C86.1655 33.0728 87.1583 30.2593 89.0738 27.8086C93.0754 28.1748 96.9625 29.2692 100.372 30.9898C103.782 32.7103 106.603 35.0009 108.573 37.6478C108.705 37.8268 108.836 38.01 108.961 38.1925C111.406 41.7627 110.311 44.823 107.796 46.8365L109.251 48.8016C110.638 47.8662 111.708 46.7082 112.39 45.406C113.669 42.9259 113.346 40.1553 111.454 37.3936C111.314 37.1899 111.169 36.9853 111.021 36.7854C108.715 33.6681 105.351 30.9946 101.278 29.0423Z" fill="#CFDD33"/>
</svg>
